<svg width="408" height="225" viewBox="0 0 408 225" fill="none" xmlns="http://www.w3.org/2000/svg">
<path d="M1.00362 115.651C277.754 115.651 384.983 115.651 404.004 115.651" stroke="#285C60"/>
<path d="M0.99958 0.518302C0.723447 0.520531 0.501404 0.746188 0.503633 1.02232C0.505862 1.29845 0.731519 1.5205 1.00765 1.51827L0.99958 0.518302ZM1.00765 1.51827C53.3732 1.09558 88.7269 8.04319 114.741 18.6785C140.748 29.3113 157.456 43.6437 172.523 58.0611C187.581 72.4704 201.048 87.019 220.505 97.9374C239.983 108.867 265.437 116.151 304.504 116.151L304.504 115.151C265.57 115.151 240.292 107.894 220.995 97.0653C201.677 86.2257 188.326 71.799 173.214 57.3386C158.111 42.8864 141.297 28.455 115.119 17.7529C88.9481 7.05327 53.4542 0.0948887 0.99958 0.518302L1.00765 1.51827Z" fill="#285C60"/>
<path d="M1.00363 59.8363C445.504 49.2759 199.504 115.65 397.004 115.65" stroke="#285C60"/>
<path d="M39.5039 179.675C39.5039 115.307 100.504 115.651 100.504 115.651M128.004 179.675C128.004 115.307 189.504 115.651 189.504 115.651" stroke="#285C60"/>
<circle cx="405.504" cy="115.5" r="2.5" fill="#285C60"/>
</svg>
